<svg xmlns="http://www.w3.org/2000/svg" width="22.578" height="20.877" viewBox="0 0 22.578 20.877">
  <g id="Group_104" data-name="Group 104" transform="translate(-0.422)">
    <path id="Path_407" data-name="Path 407" d="M18.408,0H22.27a.715.715,0,0,1,.572,1.162l-7.295,9.281,7.295,9.273a.715.715,0,0,1-.563,1.161H18.417a2.3,2.3,0,0,1-1.8-.869l-4.046-5.1a1.02,1.02,0,0,1-.22-.63V6.606a1.013,1.013,0,0,1,.219-.629L16.6.872A2.3,2.3,0,0,1,18.408,0Z" fill="#f7f7f7"/>
    <path id="Path_408" data-name="Path 408" d="M15.543,10.444l-3.2-3.861a1,1,0,0,1,.22-.612l.07-.089h6.489Z" fill="#e0e0e0"/>
    <path id="Path_409" data-name="Path 409" d="M5.014,20.877H1.152A.715.715,0,0,1,.58,19.716l7.295-9.281L.58,1.162A.715.715,0,0,1,1.143,0H5.005a2.3,2.3,0,0,1,1.8.871l4.045,5.1a1.009,1.009,0,0,1,.22.631v7.673a1.02,1.02,0,0,1-.219.63L6.812,20a2.3,2.3,0,0,1-1.8.872Z" fill="#32bfbd"/>
    <path id="Path_410" data-name="Path 410" d="M7.875,10.435l3.2,3.861a1,1,0,0,1-.219.613l-.07.087H4.3Z" fill="#009f9b"/>
  </g>
</svg>
